<?xml version="1.0" encoding="UTF-8"?>
<svg width="97px" height="97px" viewBox="0 0 97 97" version="1.1" xmlns="http://www.w3.org/2000/svg" xmlns:xlink="http://www.w3.org/1999/xlink">
    <!-- Generator: Sketch 54.1 (76490) - https://sketchapp.com -->
    <title>编组</title>
    <desc>Created with Sketch.</desc>
    <g id="页面3" stroke="none" stroke-width="1" fill="none" fill-rule="evenodd">
        <g id="画板复制-29" transform="translate(-318.000000, -462.000000)">
            <g id="编组" transform="translate(318.000000, 462.000000)">
                <rect id="矩形" fill="#FFFFFF" x="0" y="0" width="97" height="97" rx="48.5"></rect>
                <g id="编组-5" transform="translate(16.166667, 12.933333)" fill="#272727" fill-rule="nonzero">
                    <path d="M2.66767201,32.8986741 C1.98080062,29.1156886 1.73837543,25.2901977 2.02120482,21.4647067 C2.14241742,19.5094558 2.42524681,17.5542048 3.35454339,15.8964921 C4.24343577,14.3662957 5.65758273,13.2186484 7.19294229,12.4110448 C13.8596351,8.96810291 22.3041127,9.69069565 28.8091887,13.1336375 C33.940522,15.8539866 38.1829629,20.4020703 40.647619,25.8427686 C36.1223488,22.0597831 30.3041441,20.0620267 24.5263437,20.274554 C18.7485432,20.4870812 13.0919553,22.8248813 8.60708926,26.6928777 C6.42526251,28.5631177 4.56666936,30.8159068 2.66767201,33.0261905 C2.70807621,32.983685 2.70807621,32.9411796 2.66767201,32.8986741 Z" id="路径"></path>
                    <path d="M15.2777686,60.2529662 C11.687753,59.0028165 8.26667929,57.2942786 5.09901847,55.2106958 C3.49407032,54.1272327 1.93135764,52.9187547 1.00217714,51.2518885 C0.157467583,49.7100372 -0.0959452829,47.8764843 0.0307611499,46.1262748 C0.579822359,38.45869 5.64807967,31.3328368 12.0678723,27.2073428 C17.0938941,23.9986253 23.2602738,22.456774 29.2154762,22.9568339 C23.5981577,25.0820884 18.8255487,29.3325973 15.9535362,34.583226 C13.0815237,39.8338547 12.1101078,46.0429314 13.0815237,51.918635 C13.546114,54.7939792 14.4752945,57.5443086 15.3622395,60.3363095 C15.3622395,60.2529662 15.3200041,60.2529662 15.2777686,60.2529662 Z" id="路径"></path>
                    <path d="M46.9140775,63.0373027 C44.0755537,65.5805584 40.8981017,67.7423257 37.4664536,69.4802171 C35.7294465,70.3703566 33.9077074,71.1333333 31.9588702,71.1333333 C30.179497,71.1333333 28.44249,70.4127442 26.917313,69.4378295 C20.392945,65.1566824 16.4529045,57.2302021 15.9445122,49.5580474 C15.5208519,43.5390089 17.1307609,37.3928076 20.477677,32.3910714 C19.6303565,38.4101099 21.1131674,44.683474 24.3753514,49.7699854 C27.6375355,54.8564968 32.7214586,58.7985432 38.3985062,60.8331477 C41.1946639,61.8080624 44.0755537,62.4014887 46.9988095,62.9525275 C46.9564435,62.9525275 46.9564435,62.9949151 46.9140775,63.0373027 Z" id="路径"></path>
                    <path d="M62.1471335,37.6424687 C62.833865,41.4348679 63.0358449,45.2698783 62.7530731,49.1048887 C62.6318851,51.0650051 62.3491133,53.0251215 61.37961,54.6869593 C60.4908986,56.2209635 59.0770396,57.3714666 57.5015967,58.1384687 C50.7958653,61.5473668 42.3935032,60.7803647 35.8897517,57.2862442 C30.7594632,54.5165144 26.5582821,49.9571132 24.1345238,44.460265 C28.6184767,48.2952754 34.4758926,50.298003 40.2525166,50.1275581 C46.0291406,49.9571132 51.7249727,47.656107 56.1685296,43.7784853 C58.3499121,41.9035914 60.2485228,39.6878076 62.1471335,37.4720238 C62.1471335,37.5572463 62.1471335,37.5998575 62.1471335,37.6424687 Z" id="路径"></path>
                    <path d="M50.2351724,9.56830272 C53.6253837,10.7722959 56.8959406,12.432976 59.8873035,14.5088263 C61.4029274,15.5467514 62.8786665,16.7507445 63.7960178,18.4114247 C64.6335994,19.9475539 64.8729084,21.7743021 64.7532539,23.5180163 C64.3145207,31.1571451 59.6081096,38.339587 53.6253837,42.4912874 C48.9189727,45.7711308 43.135671,47.348777 37.4720238,46.9336069 C42.7767074,44.7332057 47.2039246,40.4569542 49.8762088,35.1842946 C52.5086082,29.911635 53.3860747,23.7256013 52.3889537,17.8717037 C51.9103356,15.0070303 51.0328692,12.266908 50.1155179,9.52678571 C50.1554027,9.56830272 50.1952876,9.56830272 50.2351724,9.56830272 Z" id="路径"></path>
                    <path d="M19.1388334,7.85963959 C22.0377418,5.36706132 25.2776982,3.25470685 28.7308096,1.56482328 C30.4786809,0.719881493 32.3544451,-0.0405661157 34.3154713,0.00168097365 C36.1059736,0.043928063 37.8538448,0.762128582 39.34593,1.73381164 C45.8684738,6.08526184 49.7052643,14.0277146 50.1315743,21.6744378 C50.4726223,27.6735245 48.7673821,33.7571054 45.3569017,38.7422619 C46.2521528,32.7854223 44.8879607,26.490606 41.6480042,21.3787082 C38.4080478,16.2668104 33.3775892,12.295584 27.6650345,10.1832295 C24.8940192,9.16929936 21.9524798,8.53559302 19.0535714,7.94413377 C19.0535714,7.90188668 19.0962024,7.90188668 19.1388334,7.85963959 Z" id="路径"></path>
                </g>
            </g>
        </g>
    </g>
</svg>